<?xml version="1.0" standalone="no"?><!DOCTYPE svg PUBLIC "-//W3C//DTD SVG 1.1//EN" "http://www.w3.org/Graphics/SVG/1.1/DTD/svg11.dtd"><svg t="1528944757775" class="icon" style="" viewBox="0 0 1024 1024" version="1.1" xmlns="http://www.w3.org/2000/svg" p-id="3358" xmlns:xlink="http://www.w3.org/1999/xlink" width="200" height="200"><defs><style type="text/css"></style></defs><path d="M273.295 436.336c0 34.143 27.678 61.821 61.821 61.821s61.821-27.678 61.821-61.821c0-34.143-27.678-61.821-61.821-61.821-34.143 0-61.821 27.678-61.821 61.821zM450.179 436.336c0 34.143 27.678 61.821 61.821 61.821s61.821-27.678 61.821-61.821c0-34.143-27.678-61.821-61.821-61.821-34.143 0-61.821 27.678-61.821 61.821zM627.065 436.336c0 34.143 27.678 61.821 61.821 61.821s61.821-27.678 61.821-61.821c0 0 0 0 0 0 0-34.143-27.678-61.821-61.821-61.821-34.143 0-61.821 27.678-61.821 61.821 0 0 0 0 0 0zM637.357 816.816c183.51-46.856 317.46-193.953 317.46-368.169 0-211.949-198.257-383.768-442.818-383.768s-442.818 171.819-442.818 383.768c0 174.215 133.95 321.313 317.46 368.169l125.357 147.41 125.357-147.41zM418.542 731.074c-141.74-35.164-245.484-148.292-245.484-282.427 0-162.229 151.749-293.742 338.941-293.742s338.941 131.513 338.941 293.742c0 134.063-103.634 247.142-245.258 282.368l-91.452 106.082c1.355 0.011-1.359 0 0 0l-95.689-106.024z" p-id="3359" fill="#82abba"></path></svg>