<?xml version="1.0" standalone="no"?><!DOCTYPE svg PUBLIC "-//W3C//DTD SVG 1.1//EN" "http://www.w3.org/Graphics/SVG/1.1/DTD/svg11.dtd"><svg t="1528946157933" class="icon" style="" viewBox="0 0 1024 1024" version="1.1" xmlns="http://www.w3.org/2000/svg" p-id="9609" xmlns:xlink="http://www.w3.org/1999/xlink" width="200" height="200"><defs><style type="text/css"></style></defs><path d="M777.677 326.903C777.677 185.818 665.859 71 528.151 71 390.818 71 279 185.818 279 326.903c0 102.813 59.286 191.367 144.463 231.893-145.589 42.024-267.54 169.266-319.319 342.62-3.789 12.383 3.377 25.518 15.758 29.232 2.25 0.786 4.505 1.126 6.755 1.126 9.755 0 19.136-6.755 22.137-16.886 58.199-193.995 210.502-324.201 379.357-324.201 32.644 0 64.911 4.883 96.058 14.263 12.382 3.753 25.555-3.379 28.934-15.76 3.751-12.388-3.002-25.518-15.39-29.267l-4.498-1.128C718.39 517.895 777.677 429.716 777.677 326.903L777.677 326.903zM528.115 535.909c-111.781 0-202.625-93.812-202.625-209.006 0-115.196 90.844-209 202.625-209 111.817 0 202.996 93.805 202.996 209C731.152 442.098 639.969 535.909 528.115 535.909L528.115 535.909zM528.115 535.909" p-id="9610" fill="#82abba"></path><path d="M772.425 635.532c-0.976-1.016-2.59-1.468-4.018-0.904-1.421 0.601-2.325 1.88-2.325 3.301l0 98.198-167.087-0.224c-2.814 0-5.627 1.015-7.806 3.154-2.175 2.061-3.226 4.727-3.226 7.463l0 96.173c0 2.702 1.051 5.479 3.226 7.504 2.179 2.102 4.991 3.115 7.806 3.115l167.087-0.224 0 98.232c0 1.392 0.863 2.743 2.325 3.301 1.428 0.528 3.042 0.153 4.018-0.897l146.452-151.894c1.839-1.914 2.927-4.427 2.927-7.205 0-2.738-1.088-5.288-2.927-7.168L772.425 635.532 772.425 635.532 772.425 635.532 772.425 635.532zM772.425 635.532" p-id="9611" fill="#82abba"></path></svg>