<?xml version="1.0" standalone="no"?><!DOCTYPE svg PUBLIC "-//W3C//DTD SVG 1.1//EN" "http://www.w3.org/Graphics/SVG/1.1/DTD/svg11.dtd"><svg t="1529566438515" class="icon" style="" viewBox="0 0 1024 1024" version="1.1" xmlns="http://www.w3.org/2000/svg" p-id="625" xmlns:xlink="http://www.w3.org/1999/xlink" width="200" height="200"><defs><style type="text/css"></style></defs><path d="M997.568 634.432c-34.752-73.152-132.864-111.168-167.04-122.56l0-14.08c15.232-11.776 28.608-27.392 38.208-46.784 0.32 0 0.576 0 0.896 0 21.824 0 38.848-22.272 38.848-50.624 0-22.016-10.24-40.32-25.088-47.424-9.536-68.096-57.088-118.08-114.176-118.08-40 0-76.544 24.704-97.856 66.112-1.472 2.944-2.176 6.4-3.52 9.408-14.656-92.672-79.04-160.448-156.8-160.448-77.12 0-140.992 66.688-156.352 158.208C353.6 305.856 353.152 303.232 352 300.992 330.688 259.584 294.08 234.88 254.144 234.88c-57.152 0-104.64 49.984-114.176 118.08C125.184 360.064 114.88 378.432 114.88 400.384c0 28.352 17.088 50.624 38.848 50.624 0.256 0 0.576 0 0.896 0 9.536 19.456 22.912 35.008 38.208 46.784l0 14.08c-34.176 11.392-132.48 49.792-167.936 124.8-0.704 2.176-16.064 54.656 13.056 87.296 3.008 3.392 7.36 5.312 11.968 5.312L160 729.28c7.616 0 14.208-5.504 15.744-12.992 0.832-4.096 21.888-101.632 181.824-158.016C363.648 556.16 367.936 550.464 368.192 543.936c0.256-6.592-3.456-12.544-9.408-15.232C341.248 520.768 325.952 515.2 316.096 511.936l0-14.72c14.976-11.776 28.096-27.072 37.504-46.144 5.76 0.448 10.688-1.28 15.36-3.84 0.896-0.064 1.664 0.512 2.624 0.384 14.08 30.464 34.24 55.296 57.984 72.704l0 27.904c-43.264 13.888-191.36 68.288-242.88 177.28-0.96 3.008-22.144 75.136 17.344 119.296 3.072 3.392 7.36 5.312 11.968 5.312l294.976 0L512 850.112l294.976 0c4.544 0 8.896-1.92 11.968-5.312 39.488-44.16 18.304-116.288 16.512-121.536C784.704 616.128 636.672 561.92 593.408 548.096L593.408 519.36c23.296-17.344 43.136-41.792 57.024-71.808 1.344 0.192 2.624-0.64 4.032-0.576 4.992 2.496 10.112 4.096 15.232 4.032 9.344 19.136 22.592 34.432 37.504 46.144l0 14.72c-9.856 3.264-25.152 8.832-42.624 16.768-6.016 2.688-9.664 8.704-9.408 15.232 0.32 6.528 4.48 12.224 10.688 14.4 159.872 56.384 180.928 153.856 181.76 157.952 1.408 7.552 8.064 13.056 15.744 13.056l110.144 0c4.544 0 8.896-1.92 11.968-5.312C1014.528 691.328 999.104 638.848 997.568 634.432z" p-id="626" fill="#515151"></path></svg>