<?xml version="1.0" standalone="no"?><!DOCTYPE svg PUBLIC "-//W3C//DTD SVG 1.1//EN" "http://www.w3.org/Graphics/SVG/1.1/DTD/svg11.dtd"><svg t="1530268182429" class="icon" style="" viewBox="0 0 1024 1024" version="1.1" xmlns="http://www.w3.org/2000/svg" p-id="2816" xmlns:xlink="http://www.w3.org/1999/xlink" width="200" height="200"><defs><style type="text/css"></style></defs><path d="M512.109494 425.581792c-45.472658 0-82.677001 37.204343-82.677001 82.677001 0 45.472658 37.204343 82.675978 82.677001 82.675978s82.677001-37.204343 82.677001-82.675978C594.786495 462.786135 557.581128 425.581792 512.109494 425.581792zM760.139473 425.581792c-45.472658 0-82.677001 37.204343-82.677001 82.677001 0 45.472658 37.204343 82.675978 82.677001 82.675978s82.677001-37.204343 82.677001-82.675978C842.816474 462.786135 805.612131 425.581792 760.139473 425.581792zM264.078491 425.581792c-45.472658 0-82.675978 37.204343-82.675978 82.677001 0 45.472658 37.204343 82.675978 82.675978 82.675978s82.677001-37.204343 82.677001-82.675978C346.755492 462.786135 309.551148 425.581792 264.078491 425.581792z" p-id="2817" fill="#ffffff"></path></svg>